<?xml version="1.0" encoding="UTF-8" standalone="no"?>
<!DOCTYPE svg PUBLIC "-//W3C//DTD SVG 1.1//EN" "http://www.w3.org/Graphics/SVG/1.1/DTD/svg11.dtd">
<svg width="100%" height="100%" viewBox="0 0 492 696" version="1.1" xmlns="http://www.w3.org/2000/svg" xmlns:xlink="http://www.w3.org/1999/xlink" xml:space="preserve" xmlns:serif="http://www.serif.com/" style="fill-rule:evenodd;clip-rule:evenodd;stroke-linejoin:round;stroke-miterlimit:2;">
    <g transform="matrix(1,0,0,1,-202,-240)">
        <g transform="matrix(1,0,0,1,358,240)">
            <path d="M0,0L180,0L180,12L216,12L216,24L228,24L228,36L252,36L252,48L264,48L264,60L276,60L276,72L288,72L288,84L300,84L300,108L312,108L312,144L324,144L324,288L312,288L312,324L324,324L324,336L336,336L336,432L324,432L324,456L312,456L312,468L300,468L300,480L288,480L288,492L276,492L276,540L264,540L264,564L252,564L252,588L240,588L240,600L228,600L228,612L216,612L216,636L204,636L204,648L192,648L192,660L168,660L168,672L167,673L156,673L156,684L144,684L144,696L36,696L36,684L24,684L24,673L13,673L12,672L12,660L-12,660L-12,648L-24,648L-24,636L-36,636L-36,612L-48,612L-48,600L-60,600L-60,588L-72,588L-72,564L-84,564L-84,540L-96,540L-96,492L-108,492L-108,480L-120,480L-120,468L-132,468L-132,456L-144,456L-144,432L-156,432L-156,336L-144,336L-144,324L-132,324L-132,288L-144,288L-144,144L-132,144L-132,108L-120,108L-120,84L-108,84L-108,72L-96,72L-96,60L-84,60L-84,48L-72,48L-72,36L-48,36L-48,24L-36,24L-36,12L0,12L0,0Z" style="fill:rgb(157,80,58);fill-rule:nonzero;"/>
        </g>
        <g transform="matrix(1,0,0,1,394,372)">
            <path d="M0,0L120,0L120,12L132,12L132,24L144,24L144,84L156,84L156,120L192,120L192,132L120,132L120,144L108,144L108,156L96,156L96,168L84,168L84,180L72,180L72,276L84,276L84,300L72,300L72,312L0,312L0,288L-12,288L-12,324L0,324L0,336L24,336L24,348L84,348L84,336L108,336L108,324L120,324L120,288L108,288L108,276L96,276L96,240L84,240L84,216L96,216L96,228L108,228L108,216L120,216L120,204L132,204L132,228L168,228L168,216L156,216L156,204L180,204L180,216L192,216L192,228L201,228L204,229L204,240L228,240L228,324L216,324L216,336L204,336L204,360L192,360L192,396L180,396L180,420L168,420L168,444L156,444L156,456L144,456L144,480L132,480L132,504L120,504L120,516L108,516L108,528L96,528L96,540L12,540L12,528L0,528L0,516L-12,516L-12,504L-24,504L-24,480L-36,480L-36,456L-48,456L-48,444L-60,444L-60,420L-72,420L-72,396L-84,396L-84,360L-96,360L-96,336L-108,336L-108,324L-120,324L-120,240L-96,240L-96,228L-84,228L-84,216L-72,216L-72,204L-60,204L-60,228L-24,228L-24,216L-36,216L-36,204L-12,204L-12,216L0,216L0,228L12,228L12,217L13,216L24,216L24,240L12,240L12,276L36,276L36,180L24,180L24,168L12,168L12,156L0,156L0,144L-12,144L-12,132L-72,132L-72,120L-48,120L-48,108L-36,108L-36,72L-24,72L-24,24L-12,24L-12,12L0,12L0,0Z" style="fill:rgb(180,102,68);fill-rule:nonzero;"/>
        </g>
        <g transform="matrix(1,0,0,1,358,240)">
            <path d="M0,0L180,0L180,12L216,12L216,24L228,24L228,36L252,36L252,48L264,48L264,60L276,60L276,72L288,72L288,84L300,84L300,108L312,108L312,144L324,144L324,287L312,287L312,216L288,216L288,204L276,204L276,192L264,192L263,189L261,189L262,186L263,181L240,180L240,168L228,168L228,156L216,156L216,144L204,144L204,132L180,132L180,120L-12,120L-12,131L-36,131L-36,156L-48,156L-48,168L-60,168L-60,180L-72,180L-72,192L-95,192L-95,203L-96,204L-108,204L-108,216L-132,216L-132,287L-144,287L-144,144L-132,144L-132,108L-120,108L-120,84L-108,84L-108,72L-96,72L-96,60L-84,60L-84,48L-72,48L-72,36L-48,36L-48,24L-36,24L-36,12L0,12L0,0Z" style="fill:rgb(36,38,56);fill-rule:nonzero;"/>
        </g>
        <g transform="matrix(1,0,0,1,610,420)">
            <path d="M0,0L11,1L11,7L9,9L11,9L12,11L24,12L24,24L36,24L36,36L60,36L60,107L72,107L72,108L60,108L60,144L72,144L72,156L84,156L84,252L72,252L72,276L60,276L60,288L48,288L48,300L36,300L36,312L24,312L24,360L12,360L12,384L0,384L0,408L-12,408L-12,420L-24,420L-24,432L-36,432L-36,456L-48,456L-48,468L-60,468L-60,480L-84,480L-84,492L-85,493L-96,493L-96,504L-108,504L-108,516L-216,516L-216,504L-228,504L-228,493L-239,493L-240,492L-240,480L-264,480L-264,468L-276,468L-276,456L-288,456L-288,432L-300,432L-300,420L-312,420L-312,408L-324,408L-324,384L-336,384L-336,360L-348,360L-348,312L-360,312L-360,300L-372,300L-372,288L-384,288L-384,276L-396,276L-396,252L-408,252L-408,156L-396,156L-396,144L-384,144L-384,108L-396,108L-396,107L-384,107L-384,36L-360,36L-360,24L-348,23L-348,15L-347,12L-324,12L-324,48L-335,49L-336,84L-348,84L-347,193L-346,219L-345,221L-339,220L-337,213L-336,213L-336,276L-324,276L-324,288L-312,288L-312,312L-300,312L-300,348L-288,348L-288,372L-276,372L-276,396L-264,396L-264,408L-252,408L-252,432L-240,432L-240,456L-228,456L-228,468L-216,468L-216,480L-204,480L-204,492L-120,492L-120,480L-108,480L-108,468L-96,468L-96,456L-84,456L-84,432L-72,432L-72,408L-60,408L-60,396L-48,396L-48,372L-36,372L-36,348L-24,348L-24,312L-12,312L-12,288L0,288L0,276L12,276L12,202L13,202L14,218L21,219L22,216L22,156L23,85L13,86L10,83L10,60L0,60L0,0Z" style="fill:rgb(129,66,51);fill-rule:nonzero;"/>
        </g>
        <g transform="matrix(1,0,0,1,394,372)">
            <path d="M0,0L120,0L120,12L132,12L132,24L144,24L144,84L156,84L156,120L192,120L192,132L120,132L120,144L108,144L108,156L96,156L96,168L84,168L84,180L72,180L72,276L84,276L84,300L72,300L72,312L0,312L0,288L-12,288L-12,300L-60,300L-60,312L-96,312L-96,300L-108,300L-108,276L-105,275L-89,275L-84,276L-84,264L-36,264L-36,252L-12,252L-12,240L0,240L0,228L12,228L12,217L13,216L24,216L24,240L12,240L12,276L36,276L36,180L24,180L24,168L12,168L12,156L0,156L0,144L-12,144L-12,132L-72,132L-72,120L-48,120L-48,108L-36,108L-36,72L-24,72L-24,24L-12,24L-12,12L0,12L0,0Z" style="fill:rgb(199,119,83);fill-rule:nonzero;"/>
        </g>
        <g transform="matrix(1,0,0,1,286,276)">
            <path d="M0,0L24,0L25,12L12,12L12,24L1,25L0,36L-12,36L-12,48L0,48L0,60L12,60L12,48L24,48L24,72L96,72L96,61L97,60L240,60L240,72L312,72L312,84L324,84L324,96L336,96L336,84L348,84L348,72L360,72L360,60L348,60L348,48L336,48L336,24L348,24L348,36L360,36L360,48L372,48L372,72L384,72L384,108L396,108L396,251L384,251L384,180L360,180L360,168L348,168L348,156L336,156L335,153L333,153L334,150L335,145L312,144L312,132L300,132L300,120L288,120L288,108L276,108L276,96L252,96L252,84L60,84L60,95L36,95L36,120L24,120L24,132L12,132L12,144L0,144L0,156L-23,156L-23,167L-24,168L-36,168L-36,180L-60,180L-60,251L-72,251L-72,108L-60,108L-60,72L-48,72L-48,48L-36,48L-36,36L-24,36L-24,24L-12,24L-12,12L0,12L0,0Z" style="fill:rgb(16,18,34);fill-rule:nonzero;"/>
        </g>
        <g transform="matrix(1,0,0,1,394,372)">
            <path d="M0,0L120,0L120,12L132,12L132,24L144,24L144,84L156,84L156,120L192,120L192,132L145,132L132,131L132,120L108,120L108,108L84,108L84,96L56,96L24,95L24,108L0,108L0,120L-24,120L-24,132L-72,132L-72,120L-48,120L-48,108L-36,108L-36,72L-24,72L-24,24L-12,24L-12,12L0,12L0,0Z" style="fill:rgb(181,103,68);fill-rule:nonzero;"/>
        </g>
        <g transform="matrix(1,0,0,1,514,504)">
            <path d="M0,0L72,0L72,12L84,12L84,23L96,23L96,36L84,36L84,24L24,24L24,36L72,36L72,48L84,48L84,60L72,60L72,72L79,72L84,73L84,84L60,84L60,72L36,72L36,84L48,84L48,96L12,96L12,72L0,72L0,84L-12,84L-12,96L-24,96L-24,84L-36,84L-36,108L-24,108L-24,144L-12,144L-12,156L0,156L0,192L-12,192L-12,204L-36,204L-36,216L-96,216L-96,204L-120,204L-120,192L-132,192L-132,156L-120,156L-120,180L-48,180L-48,168L-36,168L-36,144L-48,144L-48,48L-36,48L-36,36L-24,36L-24,24L-12,24L-12,12L0,12L0,0Z" style="fill:rgb(130,67,52);fill-rule:nonzero;"/>
        </g>
        <g transform="matrix(1,0,0,1,610,420)">
            <path d="M0,0L11,1L11,7L9,9L11,9L12,11L24,12L24,24L36,24L36,36L60,36L60,107L72,107L72,108L60,108L60,144L72,144L72,156L84,156L84,252L72,252L72,276L60,276L60,288L48,288L48,300L36,300L36,312L24,312L24,84L12,84L12,48L0,48L0,0Z" style="fill:rgb(49,42,54);fill-rule:nonzero;"/>
        </g>
        <g transform="matrix(1,0,0,1,263,432)">
            <path d="M0,0L23,0L23,36L12,37L11,72L-1,72L-1,300L-13,300L-13,288L-25,288L-25,276L-37,276L-37,264L-49,264L-49,240L-61,240L-61,144L-49,144L-49,132L-37,132L-37,96L-49,96L-49,95L-37,95L-37,24L-13,24L-13,12L-1,11L-1,3L0,0Z" style="fill:rgb(69,45,48);fill-rule:nonzero;"/>
        </g>
        <g transform="matrix(1,0,0,1,370,756)">
            <path d="M0,0L156,0L157,11L168,11L168,24L156,24L156,48L144,48L144,60L132,60L132,72L121,72L121,84L108,84L108,96L48,96L48,84L36,84L35,83L35,72L24,72L23,63L13,66L8,65L6,63L6,54L4,50L0,48L0,24L-12,24L-12,12L0,12L0,0Z" style="fill:rgb(177,97,70);fill-rule:nonzero;"/>
        </g>
        <g transform="matrix(1,0,0,1,310,504)">
            <path d="M0,0L72,0L72,12L84,12L84,24L96,24L96,36L108,36L108,48L120,48L120,144L96,144L96,108L108,108L108,84L97,85L96,96L84,96L84,84L72,84L72,72L48,72L48,84L60,84L60,96L24,96L24,72L12,72L12,84L-12,84L-12,72L0,72L0,60L-12,60L-12,48L0,48L0,36L48,36L48,24L12,24L12,12L1,12L1,23L0,24L-12,24L-12,12L0,12L0,0Z" style="fill:rgb(129,66,51);fill-rule:nonzero;"/>
        </g>
        <g transform="matrix(1,0,0,1,514,576)">
            <path d="M0,0L12,0L12,24L48,24L48,25L18,26L15,27L16,32L15,33L14,36L0,36L0,48L22,48L24,51L24,60L72,60L73,71L95,71L96,72L96,96L84,96L84,108L48,108L48,96L0,97L0,84L-12,84L-12,72L-24,72L-24,36L-36,36L-36,12L-24,12L-24,24L-12,24L-12,12L0,12L0,0Z" style="fill:rgb(199,119,83);fill-rule:nonzero;"/>
        </g>
        <g transform="matrix(1,0,0,1,418,467)">
            <path d="M0,0L32,0L60,1L60,13L84,13L84,25L108,25L108,36L121,36L121,37L96,37L96,49L-36,49L-36,37L-48,37L-48,25L-24,25L-24,13L0,13L0,0Z" style="fill:rgb(199,119,83);fill-rule:nonzero;"/>
        </g>
        <g transform="matrix(1,0,0,1,407,588)">
            <path d="M0,0L11,0L11,24L-1,24L-1,60L-13,60L-13,72L-25,72L-25,84L-73,84L-73,96L-109,96L-109,84L-121,84L-121,60L-118,59L-102,59L-97,60L-97,48L-49,48L-49,36L-25,36L-25,24L-13,24L-13,12L-1,12L-1,1L0,0Z" style="fill:rgb(199,119,83);fill-rule:nonzero;"/>
        </g>
        <g transform="matrix(1,0,0,1,370,732)">
            <path d="M0,0L156,0L156,12L180,12L180,24L168,24L168,35L167,36L157,36L156,35L156,24L0,24L0,36L-12,36L-12,24L-24,24L-24,12L0,12L0,0Z" style="fill:rgb(88,45,40);fill-rule:nonzero;"/>
        </g>
        <g transform="matrix(1,0,0,1,658,576)">
            <path d="M0,0L23,0L24,1L24,120L12,120L12,132L-13,132L-13,60L-12,12L0,12L0,0Z" style="fill:rgb(180,102,68);fill-rule:nonzero;"/>
        </g>
        <g transform="matrix(1,0,0,1,370,756)">
            <path d="M0,0L156,0L156,12L144,12L144,24L120,24L120,36L36,36L36,24L12,24L12,12L1,12L0,11L0,0Z" style="fill:rgb(232,230,229);fill-rule:nonzero;"/>
        </g>
        <g transform="matrix(1,0,0,1,514,540)">
            <path d="M0,0L72,0L72,12L84,12L84,24L72,24L72,36L79,36L84,37L84,48L60,48L60,36L36,36L36,48L48,48L48,60L12,60L12,36L0,36L0,48L-12,48L-12,36L-24,36L-24,24L-12,23L-12,12L0,12L0,0Z" style="fill:rgb(87,45,40);fill-rule:nonzero;"/>
        </g>
        <g transform="matrix(1,0,0,1,382,660)">
            <path d="M0,0L12,0L12,24L120,24L120,0L132,0L132,36L120,36L120,48L96,48L96,60L36,60L36,48L12,48L12,36L0,36L0,0Z" style="fill:rgb(109,56,47);fill-rule:nonzero;"/>
        </g>
        <g transform="matrix(1,0,0,1,215,576)">
            <path d="M0,0L23,0L23,12L35,12L35,36L23,36L23,60L35,60L35,132L11,132L11,120L-1,120L-1,1L0,0Z" style="fill:rgb(181,102,69);fill-rule:nonzero;"/>
        </g>
        <g transform="matrix(1,0,0,1,394,516)">
            <path d="M0,0L108,0L108,12L96,12L96,24L84,24L84,36L72,36L72,66L71,66L71,60L60,60L60,48L48,48L48,60L37,60L37,85L36,85L36,36L24,36L24,24L12,24L12,12L0,12L0,0Z" style="fill:rgb(180,102,67);fill-rule:nonzero;"/>
        </g>
        <g transform="matrix(1,0,0,1,263,432)">
            <path d="M0,0L23,0L23,36L12,37L10,57L8,59L-1,60L-2,78L-4,82L-11,85L-13,95L-15,96L-24,96L-25,98L-25,96L-36,96L-36,132L-37,132L-37,96L-49,96L-49,95L-37,95L-37,24L-13,24L-13,12L-1,11L-1,3L0,0Z" style="fill:rgb(36,38,57);fill-rule:nonzero;"/>
        </g>
        <g transform="matrix(1,0,0,1,358,240)">
            <path d="M0,0L180,0L180,12L178,13L12,13L12,24L0,24L0,36L-12,36L-12,24L-35,24L-36,12L0,12L0,0Z" style="fill:rgb(16,18,34);fill-rule:nonzero;"/>
        </g>
        <g transform="matrix(1,0,0,1,407,864)">
            <path d="M0,0L83,0L83,24L71,24L71,36L11,36L11,24L-1,24L-1,1L0,0Z" style="fill:rgb(200,120,84);fill-rule:nonzero;"/>
        </g>
        <g transform="matrix(1,0,0,1,274,780)">
            <path d="M0,0L12,0L12,12L24,12L24,36L37,36L37,60L48,60L48,71L60,71L60,84L72,85L72,96L84,96L84,108L95,108L96,109L96,120L72,120L72,108L60,108L60,96L48,96L48,72L36,72L36,60L24,60L24,48L12,48L12,24L0,24L0,0Z" style="fill:rgb(22,22,36);fill-rule:nonzero;"/>
        </g>
        <g transform="matrix(1,0,0,1,370,756)">
            <path d="M0,0L156,0L156,12L144,12L144,24L128,24L131,23L131,14L129,13L24,12L25,24L12,24L12,12L1,12L0,11L0,0Z" style="fill:rgb(220,168,140);fill-rule:nonzero;"/>
        </g>
        <g transform="matrix(1,0,0,1,514,504)">
            <path d="M0,0L72,0L72,12L84,12L84,23L96,23L96,36L84,36L84,24L-12,24L-12,12L0,12L0,0Z" style="fill:rgb(50,43,54);fill-rule:nonzero;"/>
        </g>
        <g transform="matrix(1,0,0,1,658,576)">
            <path d="M0,0L23,0L24,1L24,48L12,48L12,84L0,84L0,60L-12,60L-12,12L0,12L0,0Z" style="fill:rgb(130,67,52);fill-rule:nonzero;"/>
        </g>
        <g transform="matrix(1,0,0,1,658,528)">
            <path d="M0,0L11,0L12,36L24,36L24,48L36,48L36,144L24,144L23,49L0,48L0,60L-12,60L-12,36L0,36L0,0Z" style="fill:rgb(18,20,36);fill-rule:nonzero;"/>
        </g>
        <g transform="matrix(1,0,0,1,227,528)">
            <path d="M0,0L11,0L11,36L23,36L23,60L11,60L11,48L-12,49L-13,144L-25,144L-25,48L-13,48L-13,36L0,36L0,0Z" style="fill:rgb(18,20,36);fill-rule:nonzero;"/>
        </g>
        <g transform="matrix(1,0,0,1,610,420)">
            <path d="M0,0L11,1L11,7L9,9L11,9L12,11L24,12L24,24L36,24L36,36L60,36L60,60L14,60L13,59L13,48L0,48L0,0Z" style="fill:rgb(35,37,56);fill-rule:nonzero;"/>
        </g>
        <g transform="matrix(1,0,0,1,215,576)">
            <path d="M0,0L23,0L23,12L35,12L35,36L23,36L23,84L11,84L11,60L-1,61L-1,1L0,0Z" style="fill:rgb(128,66,51);fill-rule:nonzero;"/>
        </g>
        <g transform="matrix(1,0,0,1,466,600)">
            <path d="M0,0L4,3L8,1L12,0L12,12L24,12L24,48L36,48L36,84L0,84L0,72L12,72L12,48L0,48L0,0Z" style="fill:rgb(180,102,68);fill-rule:nonzero;"/>
        </g>
        <g transform="matrix(1,0,0,1,310,504)">
            <path d="M0,0L72,0L72,12L84,12L84,24L12,24L12,12L1,12L1,23L0,24L-12,24L-12,12L0,12L0,0Z" style="fill:rgb(50,43,54);fill-rule:nonzero;"/>
        </g>
        <g transform="matrix(1,0,0,1,370,732)">
            <rect x="0" y="0" width="156" height="12" style="fill:rgb(132,68,52);fill-rule:nonzero;"/>
        </g>
        <g transform="matrix(1,0,0,1,310,564)">
            <path d="M0,0L72,0L72,12L48,12L48,24L60,24L60,36L24,36L24,12L12,12L12,24L-12,24L-12,12L0,12L0,0Z" style="fill:rgb(17,19,34);fill-rule:nonzero;"/>
        </g>
        <g transform="matrix(1,0,0,1,514,564)">
            <path d="M0,0L72,0L72,12L79,12L84,13L84,24L60,24L60,12L36,12L36,24L48,24L48,36L12,36L12,12L0,12L0,0Z" style="fill:rgb(17,18,34);fill-rule:nonzero;"/>
        </g>
        <g transform="matrix(1,0,0,1,251,588)">
            <path d="M0,0L11,0L11,144L-1,144L-1,132L-13,132L-13,120L-1,120L-1,46L0,0Z" style="fill:rgb(18,19,34);fill-rule:nonzero;"/>
        </g>
        <g transform="matrix(1,0,0,1,285,432)">
            <path d="M0,0L1,0L1,36L-10,37L-12,57L-14,59L-23,60L-24,78L-26,82L-33,85L-35,95L-37,96L-46,96L-47,98L-47,96L-58,96L-58,132L-59,132L-59,96L-71,96L-71,95L-59,95L-59,48L-55,47L-13,48L-13,38L-11,34L-1,33L0,0Z" style="fill:rgb(50,43,54);fill-rule:nonzero;"/>
        </g>
        <g transform="matrix(1,0,0,1,634,588)">
            <path d="M0,0L11,0L12,24L12,48L11,120L24,120L24,132L12,132L12,144L0,144L0,0Z" style="fill:rgb(16,18,34);fill-rule:nonzero;"/>
        </g>
        <g transform="matrix(1,0,0,1,406,828)">
            <path d="M0,0L84,0L84,12L72,12L72,24L12,24L12,12L0,12L0,0Z" style="fill:rgb(87,45,40);fill-rule:nonzero;"/>
        </g>
        <g transform="matrix(1,0,0,1,394,696)">
            <path d="M0,0L36,0L36,12L72,12L72,0L108,0L108,12L84,12L84,24L24,24L24,12L0,12L0,0Z" style="fill:rgb(129,66,51);fill-rule:nonzero;"/>
        </g>
        <g transform="matrix(1,0,0,1,370,767)">
            <path d="M0,0L12,1L12,13L36,13L36,26L12,25L12,37L24,37L24,49L36,49L36,60L106,59L120,60L120,49L132,49L132,61L121,61L121,73L120,73L120,61L36,61L36,72L35,72L35,61L24,61L23,52L13,55L8,54L6,52L6,43L4,39L0,37L0,13L-12,13L-12,1L0,0Z" style="fill:rgb(159,82,59);fill-rule:nonzero;"/>
        </g>
        <g transform="matrix(1,0,0,1,382,913)">
            <path d="M0,0L12,0L13,10L119,10L120,0L132,0L132,11L120,11L120,23L12,23L12,11L0,11L0,0Z" style="fill:rgb(17,19,35);fill-rule:nonzero;"/>
        </g>
        <g transform="matrix(1,0,0,1,622,480)">
            <path d="M0,0L1,0L2,10L11,11L13,16L15,36L23,37L24,42L24,47L35,48L36,49L36,84L24,84L24,132L23,132L23,108L12,108L12,24L0,24L0,0Z" style="fill:rgb(69,45,48);fill-rule:nonzero;"/>
        </g>
        <g transform="matrix(1,0,0,1,310,540)">
            <path d="M0,0L72,0L72,11L69,12L12,12L12,24L-12,24L-12,12L0,12L0,0Z" style="fill:rgb(87,45,40);fill-rule:nonzero;"/>
        </g>
        <g transform="matrix(1,0,0,1,574,840)">
            <path d="M0,0L12,0L12,12L0,12L0,36L-12,36L-12,48L-24,48L-24,60L-48,60L-48,48L-36,48L-36,36L-24,36L-24,25L-12,24L-12,12L-1,11L0,0Z" style="fill:rgb(17,19,35);fill-rule:nonzero;"/>
        </g>
        <g transform="matrix(1,0,0,1,682,577)">
            <rect x="0" y="0" width="11" height="94" style="fill:rgb(16,18,34);fill-rule:nonzero;"/>
        </g>
        <g transform="matrix(1,0,0,1,203,577)">
            <rect x="0" y="0" width="11" height="94" style="fill:rgb(16,18,34);fill-rule:nonzero;"/>
        </g>
        <g transform="matrix(1,0,0,1,514,504)">
            <path d="M0,0L72,0L72,12L84,12L84,23L96,23L96,36L84,36L84,24L-12,24L-12,12L0,12L0,0ZM5,2L4,7L2,15L-5,17L-9,18L-9,21L4,22L47,22L58,21L59,19L58,7L63,9L68,8L69,6L68,3L60,2L5,2Z" style="fill:rgb(83,47,44);fill-rule:nonzero;"/>
        </g>
        <g transform="matrix(1,0,0,1,610,780)">
            <path d="M0,0L12,0L12,24L0,24L0,48L-12,48L-12,60L-24,60L-24,36L-13,35L-12,12L0,12L0,0Z" style="fill:rgb(17,19,35);fill-rule:nonzero;"/>
        </g>
        <g transform="matrix(1,0,0,1,394,648)">
            <path d="M0,0L24,0L24,24L36,24L36,36L0,36L0,0Z" style="fill:rgb(181,103,68);fill-rule:nonzero;"/>
        </g>
        <g transform="matrix(1,0,0,1,418,600)">
            <path d="M0,0L12,0L12,48L-12,48L-12,12L0,12L0,0Z" style="fill:rgb(158,81,59);fill-rule:nonzero;"/>
        </g>
        <g transform="matrix(1,0,0,1,466,600)">
            <path d="M0,0L4,3L8,1L12,0L12,12L24,12L24,48L0,48L0,0Z" style="fill:rgb(158,81,59);fill-rule:nonzero;"/>
        </g>
        <g transform="matrix(1,0,0,1,323,852)">
            <path d="M0,0L11,0L11,12L23,13L23,24L35,24L35,36L46,36L47,37L47,48L23,48L23,36L11,36L11,24L0,24L0,0Z" style="fill:rgb(17,19,35);fill-rule:nonzero;"/>
        </g>
        <g transform="matrix(1,0,0,1,382,660)">
            <path d="M0,0L12,0L12,24L48,24L48,36L0,36L0,0Z" style="fill:rgb(108,56,46);fill-rule:nonzero;"/>
        </g>
        <g transform="matrix(1,0,0,1,514,612)">
            <rect x="0" y="0" width="72" height="12" style="fill:rgb(130,67,52);fill-rule:nonzero;"/>
        </g>
        <g transform="matrix(1,0,0,1,310,612)">
            <rect x="0" y="0" width="72" height="12" style="fill:rgb(130,67,52);fill-rule:nonzero;"/>
        </g>
        <g transform="matrix(1,0,0,1,526,767)">
            <path d="M0,0L12,0L12,13L0,13L0,37L-12,37L-13,26L-21,25L-27,23L-27,25L-35,25L-36,13L-12,13L-12,1L0,0Z" style="fill:rgb(158,81,59);fill-rule:nonzero;"/>
        </g>
        <g transform="matrix(1,0,0,1,262,504)">
            <path d="M0,0L12,0L12,1L1,1L2,84L3,88L5,89L8,92L7,89L12,90L17,95L20,99L28,101L32,104L32,107L34,108L12,108L12,129L9,137L6,138L1,137L0,109L0,0Z" style="fill:rgb(142,73,55);fill-rule:nonzero;"/>
        </g>
        <g transform="matrix(1,0,0,1,514,576)">
            <path d="M0,0L12,0L12,24L48,24L48,25L18,26L15,27L16,32L15,33L14,36L-12,36L-12,12L0,12L0,0Z" style="fill:rgb(174,94,68);fill-rule:nonzero;"/>
        </g>
        <g transform="matrix(1,0,0,1,261,543)">
            <path d="M0,0L1,0L1,45L-10,45L-10,91L-11,93L-23,93L-23,69L-11,69L-11,10L-10,9L0,9L0,0Z" style="fill:rgb(82,44,41);fill-rule:nonzero;"/>
        </g>
        <g transform="matrix(1,0,0,1,418,840)">
            <rect x="0" y="0" width="60" height="12" style="fill:rgb(130,67,52);fill-rule:nonzero;"/>
        </g>
        <g transform="matrix(1,0,0,1,418,804)">
            <rect x="0" y="0" width="60" height="12" style="fill:rgb(200,120,84);fill-rule:nonzero;"/>
        </g>
        <g transform="matrix(1,0,0,1,574,384)">
            <path d="M0,0L24,0L24,12L36,12L36,36L24,36L24,24L12,24L12,12L0,12L0,0Z" style="fill:rgb(87,45,40);fill-rule:nonzero;"/>
        </g>
        <g transform="matrix(1,0,0,1,298,384)">
            <path d="M0,0L24,0L24,12L12,12L12,24L0,24L0,36L-12,36L-12,12L0,12L0,0Z" style="fill:rgb(70,45,47);fill-rule:nonzero;"/>
        </g>
        <g transform="matrix(1,0,0,1,622,324)">
            <path d="M0,0L12,0L12,12L24,12L24,24L12,24L12,36L0,36L0,24L-12,24L-12,12L0,12L0,0Z" style="fill:rgb(36,38,57);fill-rule:nonzero;"/>
        </g>
        <g transform="matrix(1,0,0,1,658,576)">
            <path d="M0,0L23,0L24,1L24,12L12,12L12,24L0,24L0,36L-12,36L-12,12L0,12L0,0Z" style="fill:rgb(157,80,58);fill-rule:nonzero;"/>
        </g>
        <g transform="matrix(1,0,0,1,215,576)">
            <path d="M0,0L23,0L23,12L35,12L35,36L23,36L23,24L11,24L11,12L-1,12L-1,1L0,0Z" style="fill:rgb(140,72,55);fill-rule:nonzero;"/>
        </g>
        <g transform="matrix(1,0,0,1,287,300)">
            <path d="M0,0L23,0L23,12L11,12L11,36L-1,36L-1,24L-13,24L-13,12L-1,12L-1,1L0,0Z" style="fill:rgb(16,18,34);fill-rule:nonzero;"/>
        </g>
        <g transform="matrix(1,0,0,1,310,504)">
            <path d="M0,0L72,0L72,12L84,12L84,24L12,24L12,12L1,12L1,23L0,24L-12,24L-12,12L0,12L0,0ZM3,2L2,7L5,10L13,11L14,21L22,22L63,22L66,21L82,21L82,16L81,15L75,15L72,16L70,14L69,8L67,8L67,5L69,5L69,3L67,2L3,2Z" style="fill:rgb(86,47,43);fill-rule:nonzero;"/>
        </g>
        <g transform="matrix(1,0,0,1,421,720)">
            <path d="M0,0L57,0L57,12L0,12L3,10L4,6L0,2L0,0Z" style="fill:rgb(200,120,84);fill-rule:nonzero;"/>
        </g>
        <g transform="matrix(1,0,0,1,645,636)">
            <path d="M0,0L13,0L13,48L1,48L1,72L0,72L0,0Z" style="fill:rgb(118,62,51);fill-rule:nonzero;"/>
        </g>
        <g transform="matrix(1,0,0,1,600,564)">
            <path d="M0,0L10,0L10,36L-14,36L-14,24L-2,24L-2,13L-7,13L-7,12L-2,12L-2,1L0,0Z" style="fill:rgb(107,55,47);fill-rule:nonzero;"/>
        </g>
        <g transform="matrix(1,0,0,1,214,588)">
            <path d="M0,0L12,0L12,12L24,12L24,24L13,25L12,36L0,36L0,0Z" style="fill:rgb(108,56,47);fill-rule:nonzero;"/>
        </g>
        <g transform="matrix(1,0,0,1,262,732)">
            <rect x="0" y="0" width="12" height="48" style="fill:rgb(18,20,36);fill-rule:nonzero;"/>
        </g>
        <g transform="matrix(1,0,0,1,562,720)">
            <path d="M0,0L12,0L12,36L0,36L0,24L-12,24L-12,12L0,12L0,0Z" style="fill:rgb(109,56,47);fill-rule:nonzero;"/>
        </g>
        <g transform="matrix(1,0,0,1,322,720)">
            <path d="M0,0L12,0L12,12L24,12L24,24L12,24L12,36L0,36L0,0Z" style="fill:rgb(108,56,47);fill-rule:nonzero;"/>
        </g>
        <g transform="matrix(1,0,0,1,238,636)">
            <rect x="0" y="0" width="12" height="48" style="fill:rgb(132,68,52);fill-rule:nonzero;"/>
        </g>
        <g transform="matrix(1,0,0,1,550,576)">
            <path d="M0,0L24,0L24,12L36,12L36,24L12,24L12,12L0,12L0,0Z" style="fill:rgb(221,172,146);fill-rule:nonzero;"/>
        </g>
        <g transform="matrix(1,0,0,1,322,552)">
            <rect x="0" y="0" width="48" height="12" style="fill:rgb(200,120,84);fill-rule:nonzero;"/>
        </g>
        <g transform="matrix(1,0,0,1,526,552)">
            <rect x="0" y="0" width="48" height="12" style="fill:rgb(199,119,83);fill-rule:nonzero;"/>
        </g>
        <g transform="matrix(1,0,0,1,382,552)">
            <path d="M0,0L12,0L12,12L24,12L24,24L12,24L12,36L0,36L0,0Z" style="fill:rgb(88,45,40);fill-rule:nonzero;"/>
        </g>
        <g transform="matrix(1,0,0,1,286,420)">
            <rect x="0" y="0" width="12" height="48" style="fill:rgb(128,66,51);fill-rule:nonzero;"/>
        </g>
        <g transform="matrix(1,0,0,1,502,552)">
            <path d="M0,0L12,0L12,36L0,36L0,24L-12,24L-12,12L0,11L0,0Z" style="fill:rgb(139,72,55);fill-rule:nonzero;"/>
        </g>
        <g transform="matrix(1,0,0,1,286,564)">
            <path d="M0,0L9,0L11,1L12,4L12,24L24,24L24,36L0,36L0,0Z" style="fill:rgb(107,55,46);fill-rule:nonzero;"/>
        </g>
        <g transform="matrix(1,0,0,1,622,732)">
            <rect x="0" y="0" width="11" height="48" style="fill:rgb(16,18,34);fill-rule:nonzero;"/>
        </g>
        <g transform="matrix(1,0,0,1,631,590)">
            <path d="M0,0L2,4L2,65L1,65L0,49L-4,50L-7,48L-9,32L-9,22L-14,21L-15,17L-10,11L-8,6L-2,5L0,0Z" style="fill:rgb(143,74,56);fill-rule:nonzero;"/>
        </g>
        <g transform="matrix(1,0,0,1,634,519)">
            <path d="M0,0L1,0L1,33L11,33L12,34L12,93L11,93L11,69L0,69L0,0Z" style="fill:rgb(84,45,40);fill-rule:nonzero;"/>
        </g>
        <g transform="matrix(1,0,0,1,585,515)">
            <path d="M0,0L13,1L13,12L25,12L25,25L13,25L13,13L-11,13L-11,1L0,0Z" style="fill:rgb(136,70,54);fill-rule:nonzero;"/>
        </g>
        <g transform="matrix(1,0,0,1,430,696)">
            <rect x="0" y="0" width="36" height="12" style="fill:rgb(87,45,40);fill-rule:nonzero;"/>
        </g>
        <g transform="matrix(1,0,0,1,430,684)">
            <rect x="0" y="0" width="36" height="12" style="fill:rgb(158,81,59);fill-rule:nonzero;"/>
        </g>
        <g transform="matrix(1,0,0,1,322,576)">
            <path d="M0,0L12,0L12,24L-12,24L-12,12L0,12L0,0Z" style="fill:rgb(230,221,216);fill-rule:nonzero;"/>
        </g>
        <g transform="matrix(1,0,0,1,358,576)">
            <path d="M0,0L24,0L24,24L12,24L12,12L0,12L0,0Z" style="fill:rgb(221,169,141);fill-rule:nonzero;"/>
        </g>
        <g transform="matrix(1,0,0,1,538,528)">
            <rect x="0" y="0" width="36" height="12" style="fill:rgb(182,104,69);fill-rule:nonzero;"/>
        </g>
        <g transform="matrix(1,0,0,1,322,528)">
            <rect x="0" y="0" width="36" height="12" style="fill:rgb(177,97,69);fill-rule:nonzero;"/>
        </g>
        <g transform="matrix(1,0,0,1,262,336)">
            <path d="M0,0L24,0L24,24L12,24L12,12L0,12L0,0Z" style="fill:rgb(36,38,57);fill-rule:nonzero;"/>
        </g>
        <g transform="matrix(1,0,0,1,394,816)">
            <path d="M0,0L12,0L12,11L82,10L96,11L96,0L108,0L108,12L97,12L97,24L96,24L96,12L12,12L12,23L11,23L11,12L0,12L0,0Z" style="fill:rgb(142,73,55);fill-rule:nonzero;"/>
        </g>
        <g transform="matrix(1,0,0,1,538,253)">
            <path d="M0,0L36,0L36,10L35,11L0,11L0,0Z" style="fill:rgb(16,18,34);fill-rule:nonzero;"/>
        </g>
        <g transform="matrix(1,0,0,1,526,601)">
            <path d="M0,0L39,0L37,1L35,8L37,9L34,11L2,11L1,7L4,5L2,4L3,2L0,0Z" style="fill:rgb(177,97,69);fill-rule:nonzero;"/>
        </g>
        <g transform="matrix(1,0,0,1,321,384)">
            <path d="M0,0L1,0L1,12L-11,12L-11,24L-23,24L-23,36L-34,36L-32,31L-31,28L-27,26L-25,27L-23,22L-17,18L-17,13L-15,7L-18,8L-18,5L-10,1L0,0Z" style="fill:rgb(86,45,40);fill-rule:nonzero;"/>
        </g>
        <g transform="matrix(1,0,0,1,346,360)">
            <path d="M0,0L12,0L12,12L-12,12L-12,24L-24,24L-24,11L0,11L0,0Z" style="fill:rgb(80,44,42);fill-rule:nonzero;"/>
        </g>
        <g transform="matrix(1,0,0,1,538,360)">
            <path d="M0,0L12,0L12,11L35,11L36,12L36,24L24,24L24,12L0,12L0,0Z" style="fill:rgb(83,45,42);fill-rule:nonzero;"/>
        </g>
        <g transform="matrix(1,0,0,1,375,360)">
            <path d="M0,0L163,0L163,11L162,11L162,1L137,2L118,2L81,3L22,3L6,2L0,1L0,0Z" style="fill:rgb(140,72,55);fill-rule:nonzero;"/>
        </g>
        <g transform="matrix(1,0,0,1,327,624)">
            <path d="M0,0L31,0L31,12L7,12L5,7L6,4L5,2L0,1L0,0Z" style="fill:rgb(177,97,69);fill-rule:nonzero;"/>
        </g>
        <g transform="matrix(1,0,0,1,538,696)">
            <path d="M0,0L12,0L12,12L24,12L24,24L11,24L11,12L0,12L0,0Z" style="fill:rgb(132,68,52);fill-rule:nonzero;"/>
        </g>
        <g transform="matrix(1,0,0,1,406,684)">
            <path d="M0,0L24,0L24,12L0,12L-1,11L-1,1L0,0Z" style="fill:rgb(70,46,48);fill-rule:nonzero;"/>
        </g>
        <g transform="matrix(1,0,0,1,466,684)">
            <path d="M0,0L24,0L25,1L25,11L24,12L0,12L0,0Z" style="fill:rgb(87,45,40);fill-rule:nonzero;"/>
        </g>
        <g transform="matrix(1,0,0,1,371,804)">
            <path d="M0,0L23,0L23,14L14,17L8,18L5,15L5,6L3,2L0,0Z" style="fill:rgb(177,97,69);fill-rule:nonzero;"/>
        </g>
        <g transform="matrix(1,0,0,1,610,468)">
            <path d="M0,0L12,0L12,36L24,36L24,121L22,120L23,37L13,38L10,35L10,12L0,12L0,0Z" style="fill:rgb(142,73,55);fill-rule:nonzero;"/>
        </g>
        <g transform="matrix(1,0,0,1,526,767)">
            <path d="M0,0L12,0L12,13L-12,13L-12,1L0,0Z" style="fill:rgb(107,55,46);fill-rule:nonzero;"/>
        </g>
        <g transform="matrix(1,0,0,1,670,588)">
            <path d="M0,0L12,0L12,12L1,12L0,24L-12,24L-12,12L0,12L0,0Z" style="fill:rgb(86,45,40);fill-rule:nonzero;"/>
        </g>
        <g transform="matrix(1,0,0,1,370,767)">
            <path d="M0,0L12,1L12,13L-12,13L-12,1L0,0Z" style="fill:rgb(130,67,52);fill-rule:nonzero;"/>
        </g>
        <g transform="matrix(1,0,0,1,585,551)">
            <path d="M0,0L13,1L13,13L-11,13L-11,1L0,0Z" style="fill:rgb(127,65,51);fill-rule:nonzero;"/>
        </g>
        <g transform="matrix(1,0,0,1,310,551)">
            <path d="M0,0L12,1L12,13L-12,13L-12,1L0,0Z" style="fill:rgb(128,66,51);fill-rule:nonzero;"/>
        </g>
        <g transform="matrix(1,0,0,1,670,672)">
            <rect x="0" y="0" width="12" height="24" style="fill:rgb(17,19,34);fill-rule:nonzero;"/>
        </g>
        <g transform="matrix(1,0,0,1,214,672)">
            <rect x="0" y="0" width="12" height="24" style="fill:rgb(17,19,34);fill-rule:nonzero;"/>
        </g>
        <g transform="matrix(1,0,0,1,646,636)">
            <rect x="0" y="0" width="12" height="24" style="fill:rgb(181,103,68);fill-rule:nonzero;"/>
        </g>
        <g transform="matrix(1,0,0,1,238,636)">
            <rect x="0" y="0" width="12" height="24" style="fill:rgb(181,103,69);fill-rule:nonzero;"/>
        </g>
        <g transform="matrix(1,0,0,1,658,636)">
            <rect x="0" y="0" width="12" height="24" style="fill:rgb(87,45,40);fill-rule:nonzero;"/>
        </g>
        <g transform="matrix(1,0,0,1,646,612)">
            <rect x="0" y="0" width="12" height="24" style="fill:rgb(85,45,40);fill-rule:nonzero;"/>
        </g>
        <g transform="matrix(1,0,0,1,238,612)">
            <rect x="0" y="0" width="12" height="24" style="fill:rgb(87,45,40);fill-rule:nonzero;"/>
        </g>
        <g transform="matrix(1,0,0,1,382,588)">
            <rect x="0" y="0" width="12" height="24" style="fill:rgb(130,67,52);fill-rule:nonzero;"/>
        </g>
        <g transform="matrix(1,0,0,1,586,276)">
            <rect x="0" y="0" width="24" height="12" style="fill:rgb(16,18,34);fill-rule:nonzero;"/>
        </g>
        <g transform="matrix(1,0,0,1,358,276)">
            <rect x="0" y="0" width="24" height="12" style="fill:rgb(16,18,34);fill-rule:nonzero;"/>
        </g>
        <g transform="matrix(1,0,0,1,514,576)">
            <path d="M0,0L12,0L12,24L1,24L0,23L0,0Z" style="fill:rgb(221,169,141);fill-rule:nonzero;"/>
        </g>
        <g transform="matrix(1,0,0,1,287,300)">
            <path d="M0,0L23,0L23,12L-1,12L-1,1L0,0Z" style="fill:rgb(16,18,34);fill-rule:nonzero;"/>
        </g>
        <g transform="matrix(1,0,0,1,236,587)">
            <path d="M0,0L14,1L14,25L2,25L2,13L-2,12L0,10L4,10L4,4L0,0Z" style="fill:rgb(143,73,55);fill-rule:nonzero;"/>
        </g>
        <g transform="matrix(1,0,0,1,297,587)">
            <path d="M0,0L13,1L13,13L-10,13L-10,1L0,0Z" style="fill:rgb(87,45,40);fill-rule:nonzero;"/>
        </g>
        <g transform="matrix(1,0,0,1,671,600)">
            <path d="M0,0L11,0L11,24L0,23L-1,21L-1,2L0,0Z" style="fill:rgb(108,56,47);fill-rule:nonzero;"/>
        </g>
        <g transform="matrix(1,0,0,1,586,588)">
            <path d="M0,0L23,0L23,11L21,12L0,12L0,0Z" style="fill:rgb(86,45,40);fill-rule:nonzero;"/>
        </g>
        <g transform="matrix(1,0,0,1,515,505)">
            <path d="M0,0L64,0L60,2L4,2L3,12L0,16L-9,17L-10,20L44,20L46,22L-12,22L-12,12L-2,11L0,0Z" style="fill:rgb(70,45,47);fill-rule:nonzero;"/>
        </g>
        <g transform="matrix(1,0,0,1,227,636)">
            <rect x="0" y="0" width="11" height="24" style="fill:rgb(87,45,40);fill-rule:nonzero;"/>
        </g>
        <g transform="matrix(1,0,0,1,377,505)">
            <path d="M0,0L4,1L5,10L6,11L16,12L16,22L-48,22L-46,20L-4,20L-1,19L15,20L14,15L8,15L5,16L1,13L3,13L2,7L0,7L0,4L2,4L2,2L0,2L0,0Z" style="fill:rgb(70,46,48);fill-rule:nonzero;"/>
        </g>
        <g transform="matrix(1,0,0,1,322,552)">
            <path d="M0,0L45,0L45,1L12,1L12,12L0,12L0,0Z" style="fill:rgb(174,95,68);fill-rule:nonzero;"/>
        </g>
        <g transform="matrix(1,0,0,1,297,554)">
            <path d="M0,0L1,0L1,10L13,10L13,22L1,22L0,11L-8,10L-8,9L0,9L0,0Z" style="fill:rgb(140,72,55);fill-rule:nonzero;"/>
        </g>
        <g transform="matrix(1,0,0,1,322,576)">
            <path d="M0,0L12,0L12,12L10,17L7,15L7,13L-2,13L0,12L0,0Z" style="fill:rgb(219,165,137);fill-rule:nonzero;"/>
        </g>
        <g transform="matrix(1,0,0,1,541,552)">
            <path d="M0,0L33,0L33,12L21,12L21,1L0,1L0,0Z" style="fill:rgb(172,93,67);fill-rule:nonzero;"/>
        </g>
        <g transform="matrix(1,0,0,1,577,588)">
            <path d="M0,0L8,0L8,11L-11,11L-6,4L-5,1L0,0Z" style="fill:rgb(232,230,229);fill-rule:nonzero;"/>
        </g>
        <g transform="matrix(1,0,0,1,275,468)">
            <path d="M0,0L11,0L11,12L0,12L0,24L-1,24L-1,1L0,0Z" style="fill:rgb(128,66,51);fill-rule:nonzero;"/>
        </g>
        <g transform="matrix(1,0,0,1,574,840)">
            <path d="M0,0L12,0L12,12L-1,13L0,0Z" style="fill:rgb(21,22,37);fill-rule:nonzero;"/>
        </g>
        <g transform="matrix(1,0,0,1,586,564)">
            <path d="M0,0L14,0L12,1L12,12L0,12L0,0Z" style="fill:rgb(142,73,55);fill-rule:nonzero;"/>
        </g>
        <g transform="matrix(1,0,0,1,678,623)">
            <path d="M0,0L4,1L4,13L-8,13L-8,1L0,0Z" style="fill:rgb(142,73,55);fill-rule:nonzero;"/>
        </g>
        <g transform="matrix(1,0,0,1,214,588)">
            <path d="M0,0L12,0L12,12L0,13L0,0Z" style="fill:rgb(70,45,47);fill-rule:nonzero;"/>
        </g>
        <g transform="matrix(1,0,0,1,502,588)">
            <path d="M0,0L12,0L13,12L0,12L0,0Z" style="fill:rgb(200,120,84);fill-rule:nonzero;"/>
        </g>
        <g transform="matrix(1,0,0,1,529,287)">
            <path d="M0,0L9,1L9,13L-3,13L-3,1L0,0Z" style="fill:rgb(50,43,54);fill-rule:nonzero;"/>
        </g>
        <g transform="matrix(1,0,0,1,514,900)">
            <rect x="0" y="0" width="12" height="12" style="fill:rgb(16,18,34);fill-rule:nonzero;"/>
        </g>
        <g transform="matrix(1,0,0,1,370,900)">
            <rect x="0" y="0" width="12" height="12" style="fill:rgb(17,19,35);fill-rule:nonzero;"/>
        </g>
        <g transform="matrix(1,0,0,1,502,804)">
            <rect x="0" y="0" width="12" height="12" style="fill:rgb(130,67,52);fill-rule:nonzero;"/>
        </g>
        <g transform="matrix(1,0,0,1,382,804)">
            <rect x="0" y="0" width="12" height="12" style="fill:rgb(130,67,52);fill-rule:nonzero;"/>
        </g>
        <g transform="matrix(1,0,0,1,478,780)">
            <rect x="0" y="0" width="12" height="12" style="fill:rgb(221,169,141);fill-rule:nonzero;"/>
        </g>
        <g transform="matrix(1,0,0,1,406,780)">
            <rect x="0" y="0" width="12" height="12" style="fill:rgb(221,169,141);fill-rule:nonzero;"/>
        </g>
        <g transform="matrix(1,0,0,1,358,756)">
            <rect x="0" y="0" width="12" height="12" style="fill:rgb(18,19,35);fill-rule:nonzero;"/>
        </g>
        <g transform="matrix(1,0,0,1,334,708)">
            <rect x="0" y="0" width="12" height="12" style="fill:rgb(130,67,52);fill-rule:nonzero;"/>
        </g>
        <g transform="matrix(1,0,0,1,658,696)">
            <rect x="0" y="0" width="12" height="12" style="fill:rgb(16,18,34);fill-rule:nonzero;"/>
        </g>
        <g transform="matrix(1,0,0,1,226,696)">
            <rect x="0" y="0" width="12" height="12" style="fill:rgb(17,19,35);fill-rule:nonzero;"/>
        </g>
        <g transform="matrix(1,0,0,1,490,648)">
            <rect x="0" y="0" width="12" height="12" style="fill:rgb(140,72,55);fill-rule:nonzero;"/>
        </g>
        <g transform="matrix(1,0,0,1,394,648)">
            <rect x="0" y="0" width="12" height="12" style="fill:rgb(143,74,56);fill-rule:nonzero;"/>
        </g>
        <g transform="matrix(1,0,0,1,214,624)">
            <path d="M0,0L11,0L12,1L12,12L0,13L0,0Z" style="fill:rgb(145,75,56);fill-rule:nonzero;"/>
        </g>
        <g transform="matrix(1,0,0,1,502,600)">
            <rect x="0" y="0" width="12" height="12" style="fill:rgb(130,67,52);fill-rule:nonzero;"/>
        </g>
        <g transform="matrix(1,0,0,1,226,600)">
            <rect x="0" y="0" width="12" height="12" style="fill:rgb(87,45,40);fill-rule:nonzero;"/>
        </g>
        <g transform="matrix(1,0,0,1,394,588)">
            <rect x="0" y="0" width="12" height="12" style="fill:rgb(53,42,50);fill-rule:nonzero;"/>
        </g>
        <g transform="matrix(1,0,0,1,490,588)">
            <rect x="0" y="0" width="12" height="12" style="fill:rgb(52,43,53);fill-rule:nonzero;"/>
        </g>
        <g transform="matrix(1,0,0,1,382,588)">
            <rect x="0" y="0" width="12" height="12" style="fill:rgb(200,120,84);fill-rule:nonzero;"/>
        </g>
        <g transform="matrix(1,0,0,1,490,576)">
            <rect x="0" y="0" width="12" height="12" style="fill:rgb(193,113,79);fill-rule:nonzero;"/>
        </g>
        <g transform="matrix(1,0,0,1,490,564)">
            <rect x="0" y="0" width="12" height="12" style="fill:rgb(87,45,40);fill-rule:nonzero;"/>
        </g>
        <g transform="matrix(1,0,0,1,394,564)">
            <rect x="0" y="0" width="12" height="12" style="fill:rgb(88,45,40);fill-rule:nonzero;"/>
        </g>
        <g transform="matrix(1,0,0,1,586,552)">
            <rect x="0" y="0" width="12" height="12" style="fill:rgb(87,45,40);fill-rule:nonzero;"/>
        </g>
        <g transform="matrix(1,0,0,1,514,552)">
            <rect x="0" y="0" width="12" height="12" style="fill:rgb(130,67,52);fill-rule:nonzero;"/>
        </g>
        <g transform="matrix(1,0,0,1,298,552)">
            <rect x="0" y="0" width="12" height="12" style="fill:rgb(87,45,40);fill-rule:nonzero;"/>
        </g>
        <g transform="matrix(1,0,0,1,598,528)">
            <rect x="0" y="0" width="12" height="12" style="fill:rgb(75,45,45);fill-rule:nonzero;"/>
        </g>
        <g transform="matrix(1,0,0,1,286,528)">
            <rect x="0" y="0" width="12" height="12" style="fill:rgb(76,45,45);fill-rule:nonzero;"/>
        </g>
        <g transform="matrix(1,0,0,1,298,516)">
            <rect x="0" y="0" width="12" height="12" style="fill:rgb(74,46,47);fill-rule:nonzero;"/>
        </g>
        <g transform="matrix(1,0,0,1,586,504)">
            <rect x="0" y="0" width="12" height="12" style="fill:rgb(183,105,70);fill-rule:nonzero;"/>
        </g>
        <g transform="matrix(1,0,0,1,298,504)">
            <rect x="0" y="0" width="12" height="12" style="fill:rgb(182,104,69);fill-rule:nonzero;"/>
        </g>
        <g transform="matrix(1,0,0,1,610,468)">
            <rect x="0" y="0" width="12" height="12" style="fill:rgb(128,66,51);fill-rule:nonzero;"/>
        </g>
        <g transform="matrix(1,0,0,1,538,360)">
            <rect x="0" y="0" width="12" height="12" style="fill:rgb(108,56,47);fill-rule:nonzero;"/>
        </g>
        <g transform="matrix(1,0,0,1,346,360)">
            <rect x="0" y="0" width="12" height="12" style="fill:rgb(104,54,45);fill-rule:nonzero;"/>
        </g>
        <g transform="matrix(1,0,0,1,634,360)">
            <rect x="0" y="0" width="12" height="12" style="fill:rgb(36,38,57);fill-rule:nonzero;"/>
        </g>
        <g transform="matrix(1,0,0,1,610,360)">
            <rect x="0" y="0" width="12" height="12" style="fill:rgb(36,38,57);fill-rule:nonzero;"/>
        </g>
        <g transform="matrix(1,0,0,1,610,348)">
            <rect x="0" y="0" width="12" height="12" style="fill:rgb(16,18,34);fill-rule:nonzero;"/>
        </g>
        <g transform="matrix(1,0,0,1,598,348)">
            <rect x="0" y="0" width="12" height="12" style="fill:rgb(36,38,57);fill-rule:nonzero;"/>
        </g>
        <g transform="matrix(1,0,0,1,598,336)">
            <rect x="0" y="0" width="12" height="12" style="fill:rgb(16,18,34);fill-rule:nonzero;"/>
        </g>
        <g transform="matrix(1,0,0,1,610,324)">
            <rect x="0" y="0" width="12" height="12" style="fill:rgb(16,18,34);fill-rule:nonzero;"/>
        </g>
        <g transform="matrix(1,0,0,1,562,324)">
            <rect x="0" y="0" width="12" height="12" style="fill:rgb(16,18,34);fill-rule:nonzero;"/>
        </g>
        <g transform="matrix(1,0,0,1,526,324)">
            <rect x="0" y="0" width="12" height="12" style="fill:rgb(16,18,34);fill-rule:nonzero;"/>
        </g>
        <g transform="matrix(1,0,0,1,346,324)">
            <rect x="0" y="0" width="12" height="12" style="fill:rgb(16,18,34);fill-rule:nonzero;"/>
        </g>
        <g transform="matrix(1,0,0,1,286,324)">
            <rect x="0" y="0" width="12" height="12" style="fill:rgb(36,38,57);fill-rule:nonzero;"/>
        </g>
        <g transform="matrix(1,0,0,1,562,312)">
            <rect x="0" y="0" width="12" height="12" style="fill:rgb(50,43,54);fill-rule:nonzero;"/>
        </g>
        <g transform="matrix(1,0,0,1,514,312)">
            <rect x="0" y="0" width="12" height="12" style="fill:rgb(16,18,34);fill-rule:nonzero;"/>
        </g>
        <g transform="matrix(1,0,0,1,466,312)">
            <rect x="0" y="0" width="12" height="12" style="fill:rgb(50,43,54);fill-rule:nonzero;"/>
        </g>
        <g transform="matrix(1,0,0,1,274,312)">
            <rect x="0" y="0" width="12" height="12" style="fill:rgb(36,38,57);fill-rule:nonzero;"/>
        </g>
        <g transform="matrix(1,0,0,1,574,300)">
            <rect x="0" y="0" width="12" height="12" style="fill:rgb(50,43,54);fill-rule:nonzero;"/>
        </g>
        <g transform="matrix(1,0,0,1,490,300)">
            <rect x="0" y="0" width="12" height="12" style="fill:rgb(50,43,54);fill-rule:nonzero;"/>
        </g>
        <g transform="matrix(1,0,0,1,538,288)">
            <rect x="0" y="0" width="12" height="12" style="fill:rgb(16,18,34);fill-rule:nonzero;"/>
        </g>
        <g transform="matrix(1,0,0,1,430,288)">
            <rect x="0" y="0" width="12" height="12" style="fill:rgb(16,18,34);fill-rule:nonzero;"/>
        </g>
        <g transform="matrix(1,0,0,1,346,288)">
            <rect x="0" y="0" width="12" height="12" style="fill:rgb(16,18,34);fill-rule:nonzero;"/>
        </g>
        <g transform="matrix(1,0,0,1,538,276)">
            <rect x="0" y="0" width="12" height="12" style="fill:rgb(50,43,54);fill-rule:nonzero;"/>
        </g>
        <g transform="matrix(1,0,0,1,502,276)">
            <rect x="0" y="0" width="12" height="12" style="fill:rgb(50,43,54);fill-rule:nonzero;"/>
        </g>
        <g transform="matrix(1,0,0,1,514,264)">
            <rect x="0" y="0" width="12" height="12" style="fill:rgb(50,43,54);fill-rule:nonzero;"/>
        </g>
        <g transform="matrix(1,0,0,1,490,264)">
            <rect x="0" y="0" width="12" height="12" style="fill:rgb(50,43,54);fill-rule:nonzero;"/>
        </g>
        <g transform="matrix(1,0,0,1,466,264)">
            <rect x="0" y="0" width="12" height="12" style="fill:rgb(50,43,54);fill-rule:nonzero;"/>
        </g>
        <g transform="matrix(1,0,0,1,520,791)">
            <path d="M0,0L5,1L6,4L6,13L-6,13L-6,1L0,0Z" style="fill:rgb(143,74,56);fill-rule:nonzero;"/>
        </g>
        <g transform="matrix(1,0,0,1,371,768)">
            <path d="M0,0L11,0L11,12L-1,12L-1,1L0,0Z" style="fill:rgb(108,56,47);fill-rule:nonzero;"/>
        </g>
        <g transform="matrix(1,0,0,1,346,696)">
            <path d="M0,0L12,0L12,12L1,12L0,11L0,0Z" style="fill:rgb(130,67,52);fill-rule:nonzero;"/>
        </g>
        <g transform="matrix(1,0,0,1,394,576)">
            <path d="M0,0L11,0L12,1L12,12L0,12L0,0Z" style="fill:rgb(195,115,80);fill-rule:nonzero;"/>
        </g>
        <g transform="matrix(1,0,0,1,502,552)">
            <path d="M0,0L12,0L12,12L1,12L0,11L0,0Z" style="fill:rgb(87,45,40);fill-rule:nonzero;"/>
        </g>
        <g transform="matrix(1,0,0,1,343,528)">
            <path d="M0,0L15,0L15,12L7,11L6,8L-2,6L-3,3L0,3L0,0Z" style="fill:rgb(180,102,68);fill-rule:nonzero;"/>
        </g>
        <g transform="matrix(1,0,0,1,262,360)">
            <path d="M0,0L12,0L12,12L1,12L0,11L0,0Z" style="fill:rgb(36,38,57);fill-rule:nonzero;"/>
        </g>
        <g transform="matrix(1,0,0,1,287,300)">
            <path d="M0,0L11,0L11,12L-1,12L-1,1L0,0Z" style="fill:rgb(36,38,57);fill-rule:nonzero;"/>
        </g>
        <g transform="matrix(1,0,0,1,503,576)">
            <path d="M0,0L10,0L11,1L11,12L-1,12L-1,1L0,0Z" style="fill:rgb(16,18,34);fill-rule:nonzero;"/>
        </g>
        <g transform="matrix(1,0,0,1,383,576)">
            <path d="M0,0L10,0L11,1L11,12L-1,12L-1,1L0,0Z" style="fill:rgb(16,18,34);fill-rule:nonzero;"/>
        </g>
        <g transform="matrix(1,0,0,1,502,504)">
            <path d="M0,0L10,0L12,1L12,12L0,12L0,0Z" style="fill:rgb(180,102,68);fill-rule:nonzero;"/>
        </g>
        <g transform="matrix(1,0,0,1,239,348)">
            <path d="M0,0L11,0L12,11L11,12L-1,12L-1,3L0,0Z" style="fill:rgb(36,38,57);fill-rule:nonzero;"/>
        </g>
        <g transform="matrix(1,0,0,1,382,913)">
            <path d="M0,0L12,0L13,10L13,19L12,19L12,11L0,11L0,0Z" style="fill:rgb(19,20,37);fill-rule:nonzero;"/>
        </g>
        <g transform="matrix(1,0,0,1,527,756)">
            <path d="M0,0L11,0L11,11L10,12L0,12L-1,11L-1,1L0,0Z" style="fill:rgb(17,19,35);fill-rule:nonzero;"/>
        </g>
        <g transform="matrix(1,0,0,1,537,767)">
            <path d="M0,0L1,0L1,13L-13,13L-11,12L-11,4L-9,1L0,0Z" style="fill:rgb(129,66,51);fill-rule:nonzero;"/>
        </g>
        <g transform="matrix(1,0,0,1,370,552)">
            <path d="M0,0L8,0L11,1L12,4L12,12L0,12L0,0Z" style="fill:rgb(143,73,55);fill-rule:nonzero;"/>
        </g>
        <g transform="matrix(1,0,0,1,502,913)">
            <path d="M0,0L12,0L12,11L-1,12L0,0Z" style="fill:rgb(16,18,34);fill-rule:nonzero;"/>
        </g>
        <g transform="matrix(1,0,0,1,383,564)">
            <path d="M0,0L11,0L11,13L0,12L0,0Z" style="fill:rgb(138,71,54);fill-rule:nonzero;"/>
        </g>
        <g transform="matrix(1,0,0,1,490,816)">
            <rect x="0" y="0" width="12" height="11" style="fill:rgb(131,67,52);fill-rule:nonzero;"/>
        </g>
        <g transform="matrix(1,0,0,1,371,792)">
            <rect x="0" y="0" width="11" height="12" style="fill:rgb(131,67,52);fill-rule:nonzero;"/>
        </g>
        <g transform="matrix(1,0,0,1,550,576)">
            <rect x="0" y="0" width="12" height="11" style="fill:rgb(232,230,229);fill-rule:nonzero;"/>
        </g>
        <g transform="matrix(1,0,0,1,358,576)">
            <rect x="0" y="0" width="12" height="11" style="fill:rgb(232,230,229);fill-rule:nonzero;"/>
        </g>
        <g transform="matrix(1,0,0,1,586,516)">
            <rect x="0" y="0" width="12" height="11" style="fill:rgb(70,45,47);fill-rule:nonzero;"/>
        </g>
        <g transform="matrix(1,0,0,1,610,288)">
            <rect x="0" y="0" width="11" height="12" style="fill:rgb(16,18,34);fill-rule:nonzero;"/>
        </g>
        <g transform="matrix(1,0,0,1,560,708)">
            <path d="M0,0L2,0L2,12L-10,12L-10,3L-7,1L0,0Z" style="fill:rgb(112,58,47);fill-rule:nonzero;"/>
        </g>
        <g transform="matrix(1,0,0,1,406,684)">
            <path d="M0,0L24,0L24,12L0,12L-1,11L-1,1L0,0ZM1,2L0,3L0,11L10,11L20,10L21,9L21,4L15,2L1,2Z" style="fill:rgb(87,45,40);fill-rule:nonzero;"/>
        </g>
        <g transform="matrix(1,0,0,1,322,528)">
            <path d="M0,0L14,0L12,5L10,11L0,12L0,0Z" style="fill:rgb(181,103,68);fill-rule:nonzero;"/>
        </g>
        <g transform="matrix(1,0,0,1,311,516)">
            <path d="M0,0L11,0L11,13L4,12L1,12L-1,11L0,0Z" style="fill:rgb(140,72,55);fill-rule:nonzero;"/>
        </g>
        <g transform="matrix(1,0,0,1,371,588)">
            <path d="M0,0L10,0L11,1L11,12L0,12L0,0Z" style="fill:rgb(232,230,229);fill-rule:nonzero;"/>
        </g>
        <g transform="matrix(1,0,0,1,232,583)">
            <path d="M0,0L4,0L6,6L9,9L8,14L2,16L-4,16L-3,9L0,0Z" style="fill:rgb(158,81,59);fill-rule:nonzero;"/>
        </g>
        <g transform="matrix(1,0,0,1,574,384)">
            <path d="M0,0L24,0L24,12L23,12L23,4L15,6L4,5L4,7L1,7L0,0Z" style="fill:rgb(70,46,48);fill-rule:nonzero;"/>
        </g>
        <g transform="matrix(1,0,0,1,622,493)">
            <path d="M0,0L11,0L12,11L0,11L0,0Z" style="fill:rgb(108,56,47);fill-rule:nonzero;"/>
        </g>
        <g transform="matrix(1,0,0,1,518,588)">
            <path d="M0,0L7,0L7,12L-3,12L-4,11L-4,3L-3,1L0,0Z" style="fill:rgb(231,226,223);fill-rule:nonzero;"/>
        </g>
        <g transform="matrix(1,0,0,1,658,576)">
            <path d="M0,0L23,0L24,3L22,6L22,3L3,3L2,15L-2,18L-3,15L-9,14L-12,12L0,12L0,0Z" style="fill:rgb(137,71,54);fill-rule:nonzero;"/>
        </g>
        <g transform="matrix(1,0,0,1,263,493)">
            <path d="M0,0L11,0L11,11L-1,11L0,0Z" style="fill:rgb(108,56,47);fill-rule:nonzero;"/>
        </g>
        <g transform="matrix(1,0,0,1,311,264)">
            <path d="M0,0L11,1L11,12L0,12L0,0Z" style="fill:rgb(16,18,34);fill-rule:nonzero;"/>
        </g>
        <g transform="matrix(1,0,0,1,311,840)">
            <rect x="0" y="0" width="11" height="11" style="fill:rgb(16,18,34);fill-rule:nonzero;"/>
        </g>
        <g transform="matrix(1,0,0,1,574,265)">
            <rect x="0" y="0" width="11" height="11" style="fill:rgb(16,18,34);fill-rule:nonzero;"/>
        </g>
        <g transform="matrix(1,0,0,1,322,720)">
            <path d="M0,0L12,0L12,12L10,10L7,2L1,1L2,32L9,31L11,29L12,36L0,36L0,0Z" style="fill:rgb(130,67,52);fill-rule:nonzero;"/>
        </g>
        <g transform="matrix(1,0,0,1,353,624)">
            <path d="M0,0L5,0L5,12L-6,12L-6,8L-8,6L-5,6L-4,2L0,0Z" style="fill:rgb(181,103,68);fill-rule:nonzero;"/>
        </g>
        <g transform="matrix(1,0,0,1,514,804)">
            <path d="M0,0L9,0L10,3L6,4L6,9L3,12L1,16L-3,17L-5,13L-11,13L-12,16L-12,12L0,12L0,0Z" style="fill:rgb(177,97,69);fill-rule:nonzero;"/>
        </g>
        <g transform="matrix(1,0,0,1,610,420)">
            <path d="M0,0L2,0L3,45L12,46L12,48L0,48L0,0Z" style="fill:rgb(54,43,52);fill-rule:nonzero;"/>
        </g>
        <g transform="matrix(1,0,0,1,375,360)">
            <path d="M0,0L59,0L58,2L22,3L6,2L0,1L0,0Z" style="fill:rgb(142,73,55);fill-rule:nonzero;"/>
        </g>
        <g transform="matrix(1,0,0,1,384,504)">
            <path d="M0,0L7,0L10,1L10,12L0,12L0,0Z" style="fill:rgb(180,102,68);fill-rule:nonzero;"/>
        </g>
        <g transform="matrix(1,0,0,1,501,671)">
            <path d="M0,0L1,0L1,13L-35,13L-35,10L-30,11L-27,10L-26,8L-17,10L-12,11L-3,9L-2,6L0,6L0,0Z" style="fill:rgb(177,97,69);fill-rule:nonzero;"/>
        </g>
        <g transform="matrix(1,0,0,1,608,424)">
            <path d="M0,0L2,0L2,44L0,42L-1,21L-1,5L0,0Z" style="fill:rgb(139,72,54);fill-rule:nonzero;"/>
        </g>
        <g transform="matrix(1,0,0,1,598,396)">
            <path d="M0,0L12,0L12,24L10,22L9,6L6,6L6,8L2,7L2,1L0,0Z" style="fill:rgb(69,45,48);fill-rule:nonzero;"/>
        </g>
        <g transform="matrix(1,0,0,1,331,788)">
            <path d="M0,0L4,0L4,2L6,2L8,8L8,18L6,24L3,28L2,3L-2,1L0,0Z" style="fill:rgb(177,97,70);fill-rule:nonzero;"/>
        </g>
        <g transform="matrix(1,0,0,1,526,601)">
            <path d="M0,0L23,0L19,2L11,2L12,3L12,7L7,10L1,10L2,6L2,5L3,2L0,0Z" style="fill:rgb(180,102,68);fill-rule:nonzero;"/>
        </g>
        <g transform="matrix(1,0,0,1,680,584)">
            <path d="M0,0L1,4L-10,4L-10,16L-22,16L-22,28L-24,27L-24,16L-23,14L-13,14L-13,4L-12,2L-2,2L0,0Z" style="fill:rgb(141,73,55);fill-rule:nonzero;"/>
        </g>
        <g transform="matrix(1,0,0,1,430,684)">
            <path d="M0,0L1,0L1,11L6,10L21,10L30,9L34,9L35,1L36,1L36,12L0,12L0,0Z" style="fill:rgb(142,73,55);fill-rule:nonzero;"/>
        </g>
        <g transform="matrix(1,0,0,1,394,675)">
            <path d="M0,0L1,0L2,5L6,7L20,7L20,6L27,5L33,6L36,6L36,9L0,9L0,0Z" style="fill:rgb(177,97,69);fill-rule:nonzero;"/>
        </g>
        <g transform="matrix(1,0,0,1,214,577)">
            <path d="M0,0L10,1L12,5L8,9L1,10L2,1L0,0Z" style="fill:rgb(158,81,59);fill-rule:nonzero;"/>
        </g>
        <g transform="matrix(1,0,0,1,538,360)">
            <path d="M0,0L12,0L12,11L4,11L7,10L6,2L1,2L0,0Z" style="fill:rgb(86,45,40);fill-rule:nonzero;"/>
        </g>
        <g transform="matrix(1,0,0,1,549,826)">
            <path d="M0,0L1,2L-11,2L-11,22L-12,19L-16,17L-16,12L-13,7L-12,1L0,0Z" style="fill:rgb(173,93,67);fill-rule:nonzero;"/>
        </g>
        <g transform="matrix(1,0,0,1,673,627)">
            <path d="M0,0L4,1L6,2L8,9L-2,9L-2,1L0,0Z" style="fill:rgb(158,81,59);fill-rule:nonzero;"/>
        </g>
        <g transform="matrix(1,0,0,1,397,590)">
            <path d="M0,0L9,0L9,10L-3,10L-3,9L4,8L5,5L-1,3L0,0Z" style="fill:rgb(72,45,46);fill-rule:nonzero;"/>
        </g>
        <g transform="matrix(1,0,0,1,273,480)">
            <path d="M0,0L1,0L1,13L-10,13L-11,30L-13,26L-12,12L-11,11L-2,10L0,0Z" style="fill:rgb(74,45,45);fill-rule:nonzero;"/>
        </g>
        <g transform="matrix(1,0,0,1,370,856)">
            <path d="M0,0L1,0L3,6L5,16L6,19L12,19L12,20L0,20L0,0Z" style="fill:rgb(176,96,69);fill-rule:nonzero;"/>
        </g>
        <g transform="matrix(1,0,0,1,525,852)">
            <path d="M0,0L1,0L1,24L-11,24L-11,23L-4,21L-2,11L-1,11L0,0Z" style="fill:rgb(177,97,70);fill-rule:nonzero;"/>
        </g>
        <g transform="matrix(1,0,0,1,514,795)">
            <path d="M0,0L9,5L11,5L11,9L0,9L0,0Z" style="fill:rgb(130,67,52);fill-rule:nonzero;"/>
        </g>
        <g transform="matrix(1,0,0,1,335,710)">
            <path d="M0,0L7,0L8,4L10,5L8,8L2,8L0,7L0,0Z" style="fill:rgb(108,56,47);fill-rule:nonzero;"/>
        </g>
        <g transform="matrix(1,0,0,1,481,687)">
            <path d="M0,0L8,1L9,8L2,8L-1,4L0,0Z" style="fill:rgb(70,46,48);fill-rule:nonzero;"/>
        </g>
        <g transform="matrix(1,0,0,1,360,606)">
            <path d="M0,0L4,0L3,4L2,6L-12,6L-11,2L-2,1L0,0Z" style="fill:rgb(177,97,70);fill-rule:nonzero;"/>
        </g>
        <g transform="matrix(1,0,0,1,285,432)">
            <path d="M0,0L1,0L1,36L-11,36L-11,34L-1,33L0,0Z" style="fill:rgb(54,43,52);fill-rule:nonzero;"/>
        </g>
        <g transform="matrix(1,0,0,1,490,588)">
            <path d="M0,0L4,2L2,2L2,10L10,9L11,2L9,1L12,1L12,12L0,12L0,0Z" style="fill:rgb(35,25,36);fill-rule:nonzero;"/>
        </g>
        <g transform="matrix(1,0,0,1,394,886)">
            <path d="M0,0L2,0L2,3L4,4L5,10L7,14L0,14L-1,1L0,0Z" style="fill:rgb(177,97,69);fill-rule:nonzero;"/>
        </g>
        <g transform="matrix(1,0,0,1,379,728)">
            <path d="M0,0L11,0L11,2L16,1L26,2L26,3L-4,3L-3,1L0,0Z" style="fill:rgb(177,97,70);fill-rule:nonzero;"/>
        </g>
        <g transform="matrix(1,0,0,1,595,600)">
            <path d="M0,0L14,0L13,2L10,3L7,6L5,10L3,11L3,1L0,0Z" style="fill:rgb(143,74,56);fill-rule:nonzero;"/>
        </g>
        <g transform="matrix(1,0,0,1,310,396)">
            <path d="M0,0L1,0L2,9L0,16L-10,14L-11,24L-12,24L-12,12L0,12L0,0Z" style="fill:rgb(139,72,54);fill-rule:nonzero;"/>
        </g>
        <g transform="matrix(1,0,0,1,601,530)">
            <path d="M0,0L6,0L6,8L0,8L-1,7L-1,1L0,0Z" style="fill:rgb(50,43,54);fill-rule:nonzero;"/>
        </g>
        <g transform="matrix(1,0,0,1,215,588)">
            <path d="M0,0L11,0L11,12L0,12L8,8L9,2L0,1L0,0Z" style="fill:rgb(87,45,40);fill-rule:nonzero;"/>
        </g>
        <g transform="matrix(1,0,0,1,417,905)">
            <path d="M0,0L4,1L6,6L-5,6L-5,3L0,0Z" style="fill:rgb(177,97,70);fill-rule:nonzero;"/>
        </g>
        <g transform="matrix(1,0,0,1,320,514)">
            <path d="M0,0L4,1L4,11L9,12L9,13L2,13L2,2L-9,2L-9,1L0,0Z" style="fill:rgb(73,45,46);fill-rule:nonzero;"/>
        </g>
        <g transform="matrix(1,0,0,1,356,824)">
            <path d="M0,0L3,1L4,5L4,19L2,23L2,4L-10,4L-10,3L-1,3L0,0Z" style="fill:rgb(171,92,67);fill-rule:nonzero;"/>
        </g>
        <g transform="matrix(1,0,0,1,290,530)">
            <path d="M0,0L5,0L6,1L6,7L4,8L0,6L-1,1L0,0Z" style="fill:rgb(50,43,54);fill-rule:nonzero;"/>
        </g>
        <g transform="matrix(1,0,0,1,331,788)">
            <path d="M0,0L4,0L4,2L6,2L5,18L3,18L2,3L-2,1L0,0Z" style="fill:rgb(178,99,69);fill-rule:nonzero;"/>
        </g>
        <g transform="matrix(1,0,0,1,297,516)">
            <path d="M0,0L1,0L1,12L-11,12L-10,10L-1,9L0,0Z" style="fill:rgb(140,72,55);fill-rule:nonzero;"/>
        </g>
        <g transform="matrix(1,0,0,1,332,749)">
            <path d="M0,0L2,2L2,7L-9,7L-7,3L-1,2L0,0Z" style="fill:rgb(129,66,51);fill-rule:nonzero;"/>
        </g>
        <g transform="matrix(1,0,0,1,659,587)">
            <path d="M0,0L1,4L-3,7L-4,4L-10,3L-13,1L0,0Z" style="fill:rgb(139,72,54);fill-rule:nonzero;"/>
        </g>
        <g transform="matrix(1,0,0,1,574,396)">
            <path d="M0,0L12,0L12,12L10,8L8,3L0,1L0,0Z" style="fill:rgb(141,73,55);fill-rule:nonzero;"/>
        </g>
        <g transform="matrix(1,0,0,1,504,886)">
            <path d="M0,0L1,2L-2,2L-2,14L-7,14L-4,12L-6,5L-4,1L0,0Z" style="fill:rgb(177,97,69);fill-rule:nonzero;"/>
        </g>
        <g transform="matrix(1,0,0,1,465,685)">
            <path d="M0,0L1,0L1,11L-14,11L-11,8L-1,8L0,0Z" style="fill:rgb(143,74,56);fill-rule:nonzero;"/>
        </g>
        <g transform="matrix(1,0,0,1,585,606)">
            <path d="M0,0L2,0L4,2L4,12L2,14L2,6L-5,6L-2,4L0,0Z" style="fill:rgb(177,97,70);fill-rule:nonzero;"/>
        </g>
        <g transform="matrix(1,0,0,1,541,552)">
            <path d="M0,0L22,0L28,1L24,3L25,5L22,5L21,9L21,1L0,1L0,0Z" style="fill:rgb(179,101,68);fill-rule:nonzero;"/>
        </g>
        <g transform="matrix(1,0,0,1,622,480)">
            <path d="M0,0L1,0L2,10L11,11L12,12L12,19L11,19L11,13L0,13L0,0Z" style="fill:rgb(77,45,44);fill-rule:nonzero;"/>
        </g>
        <g transform="matrix(1,0,0,1,574,516)">
            <path d="M0,0L10,0L6,1L6,3L3,3L2,8L0,11L0,0Z" style="fill:rgb(130,67,52);fill-rule:nonzero;"/>
        </g>
        <g transform="matrix(1,0,0,1,490,709)">
            <path d="M0,0L10,0L12,1L12,4L3,4L0,2L0,0Z" style="fill:rgb(177,97,70);fill-rule:nonzero;"/>
        </g>
        <g transform="matrix(1,0,0,1,352,600)">
            <path d="M0,0L18,0L18,1L13,1L13,3L3,3L0,0Z" style="fill:rgb(167,89,64);fill-rule:nonzero;"/>
        </g>
        <g transform="matrix(1,0,0,1,333,374)">
            <path d="M0,0L1,0L1,10L-10,10L-8,8L-2,6L0,0Z" style="fill:rgb(108,56,47);fill-rule:nonzero;"/>
        </g>
        <g transform="matrix(1,0,0,1,574,731)">
            <path d="M0,0L1,0L2,9L3,11L1,23L0,23L0,0Z" style="fill:rgb(177,97,70);fill-rule:nonzero;"/>
        </g>
        <g transform="matrix(1,0,0,1,514,600)">
            <path d="M0,0L9,0L9,1L3,1L2,10L4,11L0,11L0,0Z" style="fill:rgb(180,102,68);fill-rule:nonzero;"/>
        </g>
        <g transform="matrix(1,0,0,1,483,536)">
            <path d="M0,0L6,1L7,4L-5,4L-5,2L0,0Z" style="fill:rgb(177,97,70);fill-rule:nonzero;"/>
        </g>
        <g transform="matrix(1,0,0,1,501,516)">
            <path d="M0,0L1,0L1,12L-11,12L-11,11L0,11L0,9L-2,9L-1,1L0,0Z" style="fill:rgb(174,95,68);fill-rule:nonzero;"/>
        </g>
        <g transform="matrix(1,0,0,1,346,733)">
            <path d="M0,0L1,0L1,8L3,8L3,10L18,10L18,11L0,11L0,0Z" style="fill:rgb(176,96,69);fill-rule:nonzero;"/>
        </g>
        <g transform="matrix(1,0,0,1,299,588)">
            <path d="M0,0L11,0L11,11L10,11L9,4L0,1L0,0Z" style="fill:rgb(70,46,48);fill-rule:nonzero;"/>
        </g>
        <g transform="matrix(1,0,0,1,413,535)">
            <path d="M0,0L4,1L5,5L-7,5L-5,2L0,0Z" style="fill:rgb(177,97,70);fill-rule:nonzero;"/>
        </g>
        <g transform="matrix(1,0,0,1,479,907)">
            <path d="M0,0L3,0L3,2L6,2L6,4L-5,4L-4,2L0,0Z" style="fill:rgb(177,97,70);fill-rule:nonzero;"/>
        </g>
        <g transform="matrix(1,0,0,1,483,828)">
            <path d="M0,0L7,0L6,7L4,7L3,4L0,1L0,0Z" style="fill:rgb(108,56,47);fill-rule:nonzero;"/>
        </g>
    </g>
</svg>
